<?xml version="1.0" standalone="no"?>
<!DOCTYPE svg PUBLIC "-//W3C//DTD SVG 20010904//EN"
 "http://www.w3.org/TR/2001/REC-SVG-20010904/DTD/svg10.dtd">
<svg version="1.0" xmlns="http://www.w3.org/2000/svg"
 width="512.000000pt" height="512.000000pt" viewBox="0 0 512.000000 512.000000"
 preserveAspectRatio="xMidYMid meet">
<metadata>
Created by potrace 1.14, written by Peter Selinger 2001-2017
</metadata>
<g transform="translate(0.000000,512.000000) scale(0.100000,-0.100000)"
fill="#000000" stroke="none">
<path d="M605 4941 c-94 -34 -106 -41 -161 -96 -34 -34 -67 -80 -87 -122 l-32
-68 0 -2096 0 -2095 37 -76 c45 -91 103 -147 196 -191 l67 -32 1740 0 c1715 0
1741 0 1785 20 60 26 115 78 142 134 l23 46 3 1258 2 1257 293 0 c272 0 294 2
317 19 45 35 34 81 -44 198 l-69 103 72 108 c75 114 82 140 49 184 -17 23 -17
23 -317 26 l-301 3 0 79 0 79 221 3 220 3 20 25 c30 38 19 76 -57 189 l-67
101 72 108 c75 114 82 140 49 184 -17 23 -21 23 -237 26 l-219 3 -4 222 c-4
214 -5 224 -28 266 -33 57 -96 112 -155 133 -44 17 -155 18 -1764 17 -1619 0
-1719 -1 -1766 -18z"/>
</g>
</svg>
