<?xml version="1.0" standalone="no"?>
<!DOCTYPE svg PUBLIC "-//W3C//DTD SVG 20010904//EN"
 "http://www.w3.org/TR/2001/REC-SVG-20010904/DTD/svg10.dtd">
<svg version="1.0" xmlns="http://www.w3.org/2000/svg"
 width="461.000000pt" height="461.000000pt" viewBox="0 0 461.000000 461.000000"
 preserveAspectRatio="xMidYMid meet">
<metadata>
Created by potrace 1.14, written by Peter Selinger 2001-2017
</metadata>
<g transform="translate(0.000000,461.000000) scale(0.100000,-0.100000)"
fill="#000000" stroke="none">
<path d="M1130 4229 c-26 -13 -54 -22 -75 -23 -11 0 -26 -6 -33 -13 -7 -7 -22
-13 -32 -13 -10 0 -20 -7 -24 -15 -3 -8 -11 -12 -18 -10 -7 3 -28 -8 -47 -24
-19 -17 -38 -28 -42 -25 -4 2 -10 -3 -13 -12 -3 -8 -10 -12 -16 -9 -5 3 -10 1
-10 -4 0 -6 -17 -29 -37 -51 -61 -63 -83 -90 -76 -90 4 0 -2 -7 -13 -16 -10
-8 -13 -13 -6 -9 6 3 12 2 12 -4 0 -5 -9 -13 -20 -16 -11 -4 -18 -10 -15 -15
3 -5 -1 -21 -10 -34 -9 -14 -16 -27 -16 -30 3 -20 0 -26 -11 -20 -6 4 -9 3 -6
-2 3 -5 0 -36 -7 -69 -7 -33 -11 -68 -9 -77 1 -10 -1 -18 -5 -18 -9 0 -8 -37
2 -46 10 -11 9 -26 -2 -20 -5 4 -6 -9 -1 -28 5 -22 3 -39 -3 -45 -8 -8 -7 -11
1 -11 10 0 10 -5 2 -20 -6 -11 -7 -20 -3 -20 4 0 8 -11 8 -25 0 -14 -3 -25 -6
-25 -8 0 -4 -38 4 -46 10 -11 9 -26 -2 -20 -5 4 -6 -9 -1 -28 5 -22 3 -39 -3
-45 -8 -8 -7 -11 1 -11 10 0 10 -5 2 -20 -6 -11 -7 -20 -3 -20 4 0 8 -11 8
-25 0 -14 -3 -25 -6 -25 -8 0 -4 -38 4 -46 10 -11 9 -26 -2 -20 -5 4 -6 -9 -1
-28 5 -22 3 -39 -3 -45 -8 -8 -7 -11 1 -11 10 0 10 -5 2 -20 -6 -11 -7 -20 -3
-20 4 0 8 -11 8 -25 0 -14 -3 -25 -6 -25 -8 0 -4 -38 4 -46 10 -11 9 -26 -2
-20 -5 4 -6 -9 -1 -29 5 -21 4 -38 -2 -41 -5 -4 -5 -11 1 -18 7 -9 7 -16 0
-23 -8 -8 -8 -13 0 -17 8 -5 8 -13 1 -26 -7 -13 -7 -21 0 -25 8 -5 7 -11 -1
-21 -9 -11 -9 -14 0 -14 8 0 9 -5 1 -19 -7 -14 -7 -22 0 -26 8 -5 7 -11 -1
-21 -9 -11 -9 -14 0 -14 8 0 9 -5 1 -19 -7 -14 -7 -22 0 -26 8 -5 7 -11 -1
-21 -9 -11 -9 -14 0 -14 8 0 9 -5 1 -19 -7 -14 -7 -22 0 -26 8 -5 7 -11 -1
-21 -9 -11 -9 -14 0 -14 8 0 9 -5 1 -19 -7 -14 -7 -22 0 -26 8 -5 7 -11 -1
-21 -9 -11 -9 -14 0 -14 8 0 9 -5 1 -19 -7 -14 -7 -22 0 -26 8 -5 7 -11 -1
-21 -9 -11 -9 -14 0 -14 8 0 9 -5 1 -19 -7 -14 -7 -22 0 -26 8 -5 7 -11 -1
-21 -9 -11 -9 -14 0 -14 8 0 9 -5 1 -19 -7 -14 -7 -22 0 -26 8 -5 7 -11 -1
-21 -9 -11 -9 -14 1 -14 10 0 10 -3 0 -15 -9 -11 -9 -15 -1 -15 9 0 9 -5 1
-20 -6 -11 -7 -20 -3 -20 4 0 8 -11 8 -25 0 -14 -3 -25 -6 -25 -8 0 -4 -38 4
-46 10 -11 9 -26 -2 -20 -5 4 -6 -9 -1 -28 5 -22 3 -39 -3 -45 -8 -8 -7 -11 1
-11 10 0 10 -5 2 -20 -6 -11 -7 -20 -3 -20 4 0 8 -11 8 -25 0 -14 -3 -25 -6
-25 -8 0 -4 -38 4 -46 10 -11 9 -26 -2 -20 -5 4 -6 -9 -1 -29 5 -21 4 -38 -2
-41 -5 -3 -5 -11 2 -19 8 -10 8 -15 0 -20 -6 -4 -7 -12 -2 -18 10 -14 10 -27
-1 -44 -5 -8 -4 -13 3 -13 7 0 8 -6 1 -19 -6 -10 -7 -21 -4 -25 8 -8 8 -70 0
-84 -4 -6 -3 -14 3 -17 8 -5 8 -11 1 -19 -6 -7 -8 -16 -4 -20 9 -8 12 -46 4
-46 -3 0 -6 -11 -6 -25 0 -14 5 -25 10 -25 6 0 3 -5 -5 -10 -8 -5 -10 -10 -5
-10 11 0 11 -62 0 -79 -3 -6 -1 -11 6 -11 8 0 8 -4 -1 -15 -9 -10 -9 -15 -1
-15 6 0 11 -12 11 -27 0 -16 4 -35 10 -43 6 -9 5 -17 -3 -22 -9 -6 -9 -8 1 -8
6 0 12 -7 12 -15 0 -9 7 -27 16 -40 9 -14 12 -25 8 -25 -5 0 -3 -4 4 -9 7 -4
14 -18 15 -29 1 -12 5 -22 10 -22 4 0 5 -5 1 -12 -5 -7 -3 -8 5 -4 8 5 14 0
18 -13 3 -12 9 -21 14 -21 5 0 9 -5 9 -11 0 -7 13 -24 29 -40 16 -15 27 -30
23 -33 -3 -3 2 -6 11 -6 8 0 19 -9 22 -21 4 -11 13 -18 20 -15 7 2 22 -5 33
-17 11 -12 27 -26 34 -32 7 -5 22 -17 33 -25 11 -9 16 -10 11 -3 -10 18 -4 16
33 -11 18 -14 41 -23 52 -21 10 2 19 0 19 -6 0 -5 9 -9 20 -9 11 0 20 -6 20
-12 0 -9 4 -8 10 2 5 8 10 10 10 5 0 -11 41 -18 108 -19 17 -1 32 -5 32 -9 0
-4 9 -3 20 3 13 7 20 7 20 1 0 -7 9 -7 27 0 20 7 28 6 35 -3 6 -10 8 -10 8 2
0 10 3 11 12 2 8 -8 17 -8 31 0 15 7 22 7 28 -3 7 -12 9 -11 9 1 0 10 3 11 12
2 8 -8 17 -8 31 0 14 7 22 7 27 -2 6 -9 9 -9 13 1 4 10 6 10 6 2 1 -9 8 -10
28 -2 20 7 29 7 31 -1 3 -8 8 -8 18 1 9 7 14 8 14 1 0 -7 10 -8 30 -2 19 5 30
5 30 -1 0 -6 6 -7 12 -3 18 11 48 12 48 2 0 -5 8 -5 17 1 11 6 24 6 35 0 10
-6 19 -5 23 1 3 5 15 6 29 0 12 -4 29 -4 36 0 8 5 21 5 31 0 9 -5 19 -6 23 -3
10 10 56 10 56 0 0 -5 6 -5 13 1 8 7 18 7 27 2 8 -5 19 -6 24 -2 15 9 46 10
46 1 0 -4 12 -4 28 0 15 5 37 4 50 0 13 -5 21 -5 18 0 -3 4 8 8 24 7 17 -1 30
-4 30 -8 0 -4 12 -3 27 3 19 7 28 6 33 -2 6 -8 9 -7 13 2 4 10 6 10 6 2 1 -9
8 -10 28 -2 18 7 29 7 31 0 2 -6 14 -6 32 -1 18 5 32 5 35 -1 4 -5 14 -5 26 1
13 8 19 7 19 0 0 -6 5 -8 11 -4 14 8 97 9 105 1 4 -3 16 -1 27 5 15 7 22 8 25
0 2 -7 13 -7 33 -2 17 5 29 5 29 0 0 -6 12 -5 27 1 20 7 28 6 35 -3 6 -10 8
-10 8 2 0 10 3 11 12 2 8 -8 17 -8 32 0 15 8 21 8 24 -1 3 -9 7 -9 18 0 9 7
14 8 14 1 0 -7 10 -8 30 -2 20 6 30 5 30 -2 0 -7 4 -7 13 0 6 5 21 6 32 2 11
-4 28 -3 39 2 13 7 21 6 26 -2 5 -7 13 -9 21 -4 19 11 59 11 59 0 0 -6 5 -5
12 2 7 7 17 8 29 2 11 -7 20 -7 24 0 3 5 15 6 29 0 12 -4 29 -4 36 0 8 5 21 5
31 0 9 -5 19 -6 23 -3 9 10 46 11 46 2 0 -4 14 -3 32 2 18 5 34 5 37 1 8 -10
34 -14 27 -4 -3 5 14 9 36 10 23 1 45 7 49 13 5 8 8 7 11 -2 3 -8 9 -10 19 -3
8 5 24 9 37 9 13 0 27 6 31 14 4 7 14 14 22 15 46 9 68 19 62 29 -4 6 -1 7 6
3 7 -5 19 0 27 10 9 11 13 13 9 4 -4 -10 -2 -9 8 2 8 10 16 16 19 13 2 -3 23
13 46 36 23 22 42 36 42 32 0 -4 8 4 17 17 10 14 27 36 40 50 12 14 22 29 22
33 0 5 9 17 20 26 11 10 18 21 15 24 -4 3 3 18 13 34 11 15 23 40 27 55 3 16
10 28 15 28 4 0 7 14 6 30 -1 17 2 30 8 30 5 0 7 7 3 15 -3 8 0 15 7 15 8 0 6
4 -3 10 -12 8 -12 10 -1 10 8 0 11 3 8 6 -3 4 -2 15 4 25 7 13 6 19 -1 19 -8
0 -8 6 0 20 8 14 8 20 0 20 -8 0 -8 6 0 20 8 15 8 20 -2 20 -9 0 -9 3 2 10 8
5 10 10 5 10 -12 0 -13 40 -1 58 4 7 2 12 -4 12 -6 0 -8 5 -3 12 11 19 13 38
3 38 -5 0 -5 14 0 30 5 19 5 30 -1 30 -6 0 -5 8 1 20 8 14 8 20 0 20 -8 0 -8
6 0 20 8 14 8 20 0 20 -8 0 -8 6 0 20 8 15 8 20 -2 20 -9 0 -9 3 2 10 8 5 10
10 5 10 -12 0 -13 40 -1 58 4 7 2 12 -4 12 -6 0 -8 5 -3 13 11 18 13 37 3 37
-5 0 -5 14 0 30 5 19 5 30 -1 30 -6 0 -5 8 1 20 8 14 8 20 0 20 -8 0 -8 6 0
20 8 14 8 20 0 20 -8 0 -8 6 0 20 8 15 8 20 -2 20 -9 0 -9 3 2 10 8 5 10 10 5
10 -12 0 -13 40 -1 58 4 7 2 12 -4 12 -6 0 -8 5 -3 13 11 18 13 37 3 37 -5 0
-5 14 0 30 5 19 5 30 -1 30 -6 0 -5 8 1 20 8 15 8 20 -2 20 -9 0 -9 3 2 10 8
5 10 10 5 10 -12 0 -13 40 -1 58 4 7 2 12 -4 12 -6 0 -8 5 -3 13 11 18 13 37
3 37 -5 0 -5 14 0 30 5 19 5 30 -1 30 -6 0 -5 8 1 20 8 15 8 20 -2 20 -9 0 -9
3 2 10 8 5 10 10 5 10 -12 0 -13 40 -1 58 4 7 2 12 -4 12 -6 0 -8 5 -3 13 11
18 13 37 3 37 -5 0 -5 14 0 30 5 19 5 30 -1 30 -6 0 -5 8 1 20 8 15 8 20 -2
20 -9 0 -9 3 2 10 8 5 10 10 5 10 -12 0 -13 40 -1 58 4 7 2 12 -4 12 -6 0 -8
5 -3 13 10 16 13 37 4 37 -9 0 -7 42 3 58 4 7 2 12 -4 12 -7 0 -8 6 0 19 7 14
7 22 0 26 -8 5 -7 11 1 21 9 11 9 14 0 14 -8 0 -9 5 -1 19 7 14 7 22 0 26 -8
5 -7 11 1 21 9 11 9 14 0 14 -8 0 -9 5 -1 19 7 14 7 22 0 26 -8 5 -7 11 1 21
9 11 9 14 0 14 -9 0 -9 5 0 21 6 12 7 24 3 28 -11 7 -11 42 -1 59 5 7 3 12 -3
12 -6 0 -8 5 -3 13 11 18 13 37 3 37 -5 0 -5 14 0 30 5 19 5 30 -1 30 -6 0 -5
8 1 20 8 15 8 20 -2 20 -9 0 -9 3 2 10 8 5 10 10 5 10 -12 0 -13 40 -1 58 4 7
2 12 -4 12 -6 0 -8 5 -3 13 11 18 13 37 3 37 -5 0 -5 14 0 30 5 19 5 30 -1 30
-6 0 -5 8 1 20 8 15 8 20 -2 20 -9 0 -9 3 2 10 8 5 10 10 5 10 -11 0 -13 39
-2 56 3 5 2 16 -3 24 -4 7 -4 24 1 37 5 14 5 23 -1 23 -5 0 -7 9 -5 20 2 11 0
22 -5 25 -5 3 -7 12 -3 20 3 9 -1 15 -8 15 -11 0 -11 3 1 10 8 5 10 10 5 10
-6 0 -12 12 -13 28 -1 15 -7 29 -12 30 -6 2 -8 7 -5 12 3 5 0 14 -7 22 -7 7
-15 22 -16 33 -2 11 -8 22 -13 23 -5 2 -9 12 -9 22 0 10 -7 21 -16 24 -8 3
-12 10 -9 16 3 5 1 10 -5 10 -6 0 -8 5 -5 10 3 6 -1 10 -9 10 -9 0 -16 5 -16
11 0 15 -26 39 -35 31 -4 -4 -5 -1 -3 7 2 8 -11 24 -29 35 -18 12 -32 27 -33
34 0 7 -4 10 -10 7 -5 -3 -10 -1 -10 4 0 6 -7 11 -15 11 -8 0 -15 5 -15 10 0
6 -7 10 -16 10 -8 0 -12 4 -9 10 3 6 -1 7 -9 4 -9 -3 -16 -1 -16 6 0 6 -4 8
-10 5 -5 -3 -10 -1 -10 4 0 6 -9 11 -20 11 -11 0 -20 5 -20 10 0 6 -11 10 -24
10 -14 0 -28 5 -31 10 -3 6 -19 10 -36 10 -16 0 -29 5 -29 13 0 7 -3 8 -8 2
-9 -12 -52 -15 -52 -3 0 4 -523 8 -1163 8 -913 0 -1166 -3 -1175 -12 -9 -9
-15 -10 -20 -2 -4 7 -13 8 -22 3z"/>
</g>
</svg>
